<?xml version="1.0" encoding="UTF-8" standalone="yes"?>
<!DOCTYPE svg PUBLIC "-//W3C//DTD SVG 1.1//EN" "http://www.w3.org/Graphics/SVG/1.1/DTD/svg11.dtd">

<svg width="500" height="500" viewBox="0 0 500 500" xmlns="http://www.w3.org/2000/svg" xmlns:xlink="http://www.w3.org/1999/xlink" version="1.1" baseProfile="full">
    <defs>
        <linearGradient id="105553154689936140455740305632" x1="-0.314404%" x2="100.098907%" y1="51.434616%" y2="52.050755%">
            <stop offset="0%" style="stop-color:#060606;stop-opacity:0.000512"></stop>
            <stop offset="5%" style="stop-color:#1d1d1d;stop-opacity:0.014660"></stop>
            <stop offset="100%" style="stop-color:#131313;stop-opacity:0.001985"></stop>
        </linearGradient>
    </defs>
    <g transform="scale(1,-1) translate(0,-500)">
        <path d="M 1.000000 501.000000 L 501.000000 501.000000 L 501.000000 1.000000 L 1.000000 1.000000 L 1.000000 501.000000 Z M 244.164063 445.335938 C 218.973203 426.442793 58.907531 292.316236 46.996092 277.757807 C 30.143736 257.160487 48.375434 231.470895 73.265625 235.863281 C 92.736176 239.299261 237.284064 381.654615 250.609381 382.542966 C 257.890576 383.028382 288.154440 352.836353 295.531256 346.800787 C 317.257121 329.025069 413.088875 240.752927 429.222656 235.375000 C 436.419236 232.976140 443.780448 235.476431 450.121088 238.890631 C 455.212470 241.632135 458.405149 246.945915 460.179699 252.269534 C 466.822530 272.198059 447.551438 284.920627 434.105469 295.921875 C 404.760376 319.931496 282.813206 431.623718 263.695312 441.917969 C 257.839722 445.070979 252.694174 445.335938 244.164063 445.335938 Z M 248.070313 350.609375 C 232.324596 340.393862 104.897054 229.585694 102.464845 222.289068 C 96.560839 204.577049 100.609375 166.023313 100.609375 146.019531 C 100.609375 128.970904 96.949311 79.070037 101.390628 65.746082 C 102.832815 61.419524 106.577111 57.765115 111.156253 56.957019 C 121.567854 55.119689 133.496321 56.664063 144.066406 56.664063 C 154.962979 56.664063 182.476691 53.458303 191.332025 58.226568 C 209.370174 67.939409 188.482679 143.936730 201.292975 159.593744 C 207.655174 167.369778 278.936702 164.800001 292.503906 164.085938 C 318.755814 162.704258 298.985879 87.999394 306.664062 64.964844 C 307.772355 61.639968 310.523631 58.665300 313.890619 57.542963 C 321.252909 55.088874 385.101098 54.912605 392.406238 57.347668 C 396.281766 58.639495 399.331233 61.911668 400.609387 65.746082 C 405.050689 79.070037 401.390625 128.970904 401.390625 146.019531 C 401.390625 166.016828 405.445458 204.558157 399.535162 222.289068 C 394.111929 238.558744 282.169185 329.413067 261.156244 346.605463 C 258.085082 349.118242 253.970369 350.609375 248.070313 350.609375 Z" transform="scale(1.000000,1.000000) translate(-1.000000,-1.000000)" fill="url(#105553154689936140455740305632)" opacity="1.000000"></path>
        <path d="M 204.705008 211.911389 C 213.235119 211.911389 218.380668 211.646430 224.236258 208.493420 C 243.354152 198.199170 365.301322 86.506948 394.646415 62.497327 C 408.092384 51.496079 427.363476 38.773511 420.720645 18.844986 C 418.946095 13.521367 415.753415 8.207587 410.662034 5.466083 C 404.321394 2.051883 396.960182 -0.448408 389.763602 1.950452 C 373.629820 7.328379 277.798067 95.600520 256.072202 113.376239 C 248.695386 119.411805 218.431522 149.603834 211.150327 149.118417 C 197.825010 148.230066 53.277122 5.874712 33.806571 2.438733 C 8.916379 -1.953654 -9.315318 23.735938 7.537038 44.333258 C 19.448477 58.891687 179.514148 193.018244 204.705008 211.911389 Z" transform="scale(1.000000,1.000000) translate(38.459054,232.424548)" fill="#ec5a29" opacity="0.996078"></path>
        <path d="M 149.878704 296.000136 C 155.778760 296.000136 159.893474 294.509004 162.964636 291.996224 C 183.977576 274.803829 295.920321 183.949505 301.343554 167.679830 C 307.253850 149.948918 303.199017 111.407590 303.199017 91.410293 C 303.199017 74.361665 306.859081 24.460798 302.417778 11.136843 C 301.139624 7.302429 298.090157 4.030256 294.214630 2.738429 C 286.909489 0.303367 223.061300 0.479635 215.699011 2.933724 C 212.332022 4.056062 209.580746 7.030729 208.472454 10.355605 C 200.794271 33.390155 220.564205 108.095019 194.312298 109.476699 C 180.745094 110.190762 109.463565 112.760540 103.101366 104.984505 C 90.291071 89.327491 111.178566 13.330170 93.140417 3.617330 C 84.285083 -1.150936 56.771371 2.054824 45.874798 2.054824 C 35.304713 2.054824 23.376245 0.510451 12.964644 2.347781 C 8.385502 3.155876 4.641206 6.810285 3.199019 11.136843 C -1.242298 24.460798 2.417767 74.361665 2.417767 91.410293 C 2.417767 111.414075 -1.630769 149.967811 4.273237 167.679830 C 6.705446 174.976455 134.132988 285.784623 149.878704 296.000136 Z" transform="scale(1.000000,1.000000) translate(97.191608,53.609239)" fill="#413f41" opacity="0.996078"></path>
    </g>
</svg>